<?xml version="1.0" encoding="utf-8"?>
<!-- Generator: Adobe Illustrator 27.9.3, SVG Export Plug-In . SVG Version: 9.03 Build 53313)  -->
<svg version="1.1" id="b" xmlns="http://www.w3.org/2000/svg" xmlns:xlink="http://www.w3.org/1999/xlink" x="0px" y="0px"
	 viewBox="0 0 330 297" style="enable-background:new 0 0 330 297;" xml:space="preserve">
<style type="text/css">
	.st0{fill:#F9CB15;}
</style>
<g id="c">
	<path class="st0" d="M75.9,235.7c-0.2-8.3-20-41.7-57.3-18.4c-30.7,22-17.9,62.8,0,69.8c0,0,15.8,14.9,105.8,7.9
		C230.7,267.3,156,158,156,158H91.4c0,0,34.1,69,14.9,75.5S84.3,237.9,75.9,235.7L75.9,235.7z"/>
	<path class="st0" d="M263.1,61.6c0.2,8.3,17.8,37.6,55.2,14.3c27-28.7-1.3-59.7-1.3-59.7s-1.3-16.5-91.2-10.6
		c-106.3,27.7-30.9,142.3-30.9,142.3h64.6c0,0-40.6-77.7-21.5-84.3s16.6-4.2,25.2-2.1L263.1,61.6z"/>
	<path class="st0" d="M198.4,158c0,0,61.3,109.4-26.4,139h68.6c0,0,92.3-23.6,23.7-139H198.4L198.4,158z"/>
	<path class="st0" d="M135.8,106.7c0,0-36.4-67.8,45.7-106.7h-74.7c0,0-80.4,14.5-35.6,106.7H135.8L135.8,106.7z"/>
	<polygon class="st0" points="74.1,114 87.9,150 155.2,150 137.6,114 	"/>
</g>
</svg>
